PathFileType	4	(X/Y/Z)	 1.9Hzhigh3min.trc
DataRate	CameraRate	NumFrames	NumMarkers	Units	OrigDataRate	OrigDataStartFrame	OrigNumFrames
200	200	9	43	m	200	376	1000
Frame#	Time	C7			LSH			RSH			MAN			RASI			LASI			HIPR			HIPL			RPSI			LPSI			COX			RTHI1			RTHI2			RTHI3			RTHI4			RLKN			RMKN			RSHA1			RSHA2			RSHA3			RSHA4			RLMAL			RMMAL			RHEEL			RMET5			RMET1			RTOE			LTHI1			LTHI2			LTHI3			LTHI4			LLKN			LMKN			LSHA1			LSHA2			LSHA3			LSHA4			LLMAL			LMMAL			LHEEL			LMET5			LMET1			LTOE			
		X1	Y1	Z1	X2	Y2	Z2	X3	Y3	Z3	X4	Y4	Z4	X5	Y5	Z5	X6	Y6	Z6	X7	Y7	Z7	X8	Y8	Z8	X9	Y9	Z9	X10	Y10	Z10	X11	Y11	Z11	X12	Y12	Z12	X13	Y13	Z13	X14	Y14	Z14	X15	Y15	Z15	X16	Y16	Z16	X17	Y17	Z17	X18	Y18	Z18	X19	Y19	Z19	X20	Y20	Z20	X21	Y21	Z21	X22	Y22	Z22	X23	Y23	Z23	X24	Y24	Z24	X25	Y25	Z25	X26	Y26	Z26	X27	Y27	Z27	X28	Y28	Z28	X29	Y29	Z29	X30	Y30	Z30	X31	Y31	Z31	X32	Y32	Z32	X33	Y33	Z33	X34	Y34	Z34	X35	Y35	Z35	X36	Y36	Z36	X37	Y37	Z37	X38	Y38	Z38	X39	Y39	Z39	X40	Y40	Z40	X41	Y41	Z41	X42	Y42	Z42	X43	Y43	Z43	
376	1.8800	-0.271776	1.571154	-0.590299	-0.183356	1.547285	-0.786150	-0.182487	1.532671	-0.393551	-0.132931	1.507759	-0.591764	-0.109766	1.056606	-0.469784	-0.109034	1.056804	-0.717763	-0.193045	1.111261	-0.433991	-0.181644	1.098253	-0.754076	-0.287177	1.105801	-0.540118	-0.288789	1.102297	-0.637470	-0.292661	1.101668	-0.588612	-0.218340	0.802960	-0.404594	-0.208184	0.743681	-0.406103	-0.144573	0.750551	-0.395464	-0.146312	0.812177	-0.392787	-0.199530	0.546783	-0.417793	-0.167800	0.521760	-0.530243	-0.284650	0.370099	-0.401502	-0.297601	0.330392	-0.409350	-0.232133	0.356865	-0.398691	-0.238395	0.317717	-0.401013	-0.321918	0.149431	-0.427490	-0.283731	0.148249	-0.505861	-0.361360	0.155289	-0.487332	-0.248006	0.041431	-0.405309	-0.190343	0.047360	-0.469985	-0.171160	0.037435	-0.471787	-0.212212	0.809803	-0.783018	-0.199536	0.749801	-0.784760	-0.135680	0.757020	-0.794966	-0.141096	0.816740	-0.795994	-0.182970	0.548141	-0.774390	-0.162513	0.532422	-0.656981	-0.270259	0.363036	-0.776376	-0.279265	0.324496	-0.768749	-0.220001	0.313844	-0.779825	-0.217515	0.356819	-0.786397	-0.292771	0.148365	-0.759095	-0.248638	0.151051	-0.683138	-0.330337	0.158466	-0.695930	-0.220476	0.035686	-0.770667	-0.166949	0.045826	-0.701190	-0.143307	0.035987	-0.708214	
377	1.8850	-0.273113	1.577409	-0.590153	-0.184610	1.554457	-0.785681	-0.183986	1.539697	-0.393574	-0.134318	1.515042	-0.591597	-0.108935	1.064554	-0.470335	-0.107854	1.064923	-0.717403	-0.191844	1.119212	-0.434902	-0.179911	1.106229	-0.754120	-0.286123	1.113204	-0.540703	-0.287398	1.109821	-0.638133	-0.291394	1.109268	-0.589239	-0.219924	0.810184	-0.404896	-0.210370	0.750797	-0.406352	-0.146764	0.757041	-0.395173	-0.147906	0.818669	-0.392505	-0.203233	0.553851	-0.417706	-0.170479	0.528227	-0.530067	-0.285683	0.375818	-0.400751	-0.297881	0.335720	-0.408483	-0.232960	0.363452	-0.397652	-0.238524	0.324122	-0.399803	-0.319247	0.154005	-0.425588	-0.280642	0.153023	-0.503871	-0.357957	0.160865	-0.485725	-0.247057	0.044058	-0.404897	-0.189462	0.049066	-0.468464	-0.170614	0.038621	-0.470119	-0.213279	0.817310	-0.783316	-0.201278	0.757173	-0.784887	-0.137327	0.763632	-0.794980	-0.142061	0.823406	-0.796195	-0.187750	0.554937	-0.774047	-0.166682	0.539114	-0.656781	-0.272178	0.368230	-0.776773	-0.280187	0.329428	-0.769384	-0.220773	0.320290	-0.781057	-0.219391	0.363380	-0.787306	-0.289538	0.152970	-0.761322	-0.245026	0.155680	-0.685528	-0.326180	0.163846	-0.697715	-0.219253	0.038138	-0.771087	-0.165539	0.047805	-0.702701	-0.142336	0.037202	-0.709902	
378	1.8900	-0.274408	1.583415	-0.590026	-0.185794	1.561325	-0.785252	-0.185399	1.546417	-0.393607	-0.135651	1.522028	-0.591440	-0.108194	1.072171	-0.470893	-0.106760	1.072755	-0.717052	-0.190712	1.126934	-0.435733	-0.178279	1.113935	-0.754189	-0.285183	1.120435	-0.541288	-0.286116	1.117126	-0.638781	-0.290188	1.116697	-0.589844	-0.221441	0.817155	-0.405217	-0.212447	0.757675	-0.406610	-0.148857	0.763334	-0.394918	-0.149447	0.824965	-0.392271	-0.206555	0.560595	-0.417683	-0.172898	0.534392	-0.529994	-0.286430	0.381309	-0.400139	-0.297942	0.340846	-0.407798	-0.233574	0.369731	-0.396794	-0.238511	0.330268	-0.398753	-0.316926	0.158755	-0.424008	-0.277908	0.157824	-0.502185	-0.354983	0.166344	-0.484436	-0.246212	0.047399	-0.404214	-0.188563	0.051279	-0.466660	-0.170029	0.040271	-0.468061	-0.214388	0.824594	-0.783568	-0.203012	0.764331	-0.784968	-0.138984	0.770088	-0.794937	-0.143078	0.829903	-0.796339	-0.192244	0.561514	-0.773684	-0.170675	0.545557	-0.656512	-0.273797	0.373331	-0.777205	-0.280866	0.334297	-0.770045	-0.221318	0.326603	-0.782135	-0.220968	0.369786	-0.788085	-0.286522	0.157770	-0.763325	-0.241762	0.160492	-0.687630	-0.322497	0.169080	-0.699376	-0.217784	0.041318	-0.771833	-0.163865	0.050325	-0.704374	-0.141081	0.038882	-0.711840	
379	1.8950	-0.275661	1.589149	-0.589916	-0.186903	1.567889	-0.784866	-0.186756	1.552835	-0.393637	-0.136914	1.528712	-0.591298	-0.107546	1.079416	-0.471459	-0.105756	1.080248	-0.716715	-0.189667	1.134370	-0.436469	-0.176745	1.121351	-0.754275	-0.284350	1.127477	-0.541870	-0.284958	1.124207	-0.639414	-0.289079	1.123939	-0.590438	-0.222867	0.823848	-0.405550	-0.214383	0.764296	-0.406867	-0.150824	0.769414	-0.394697	-0.150913	0.831047	-0.392082	-0.209397	0.566968	-0.417701	-0.174991	0.540257	-0.529992	-0.286966	0.386595	-0.399599	-0.297933	0.345883	-0.407194	-0.234005	0.375678	-0.396130	-0.238431	0.336122	-0.397871	-0.315113	0.163662	-0.422804	-0.275662	0.162626	-0.500835	-0.352577	0.171668	-0.483542	-0.245566	0.051437	-0.403216	-0.187716	0.054098	-0.464502	-0.169455	0.042525	-0.465509	-0.215538	0.831629	-0.783756	-0.204743	0.771253	-0.784990	-0.140655	0.776360	-0.794845	-0.144160	0.836206	-0.796422	-0.196311	0.567865	-0.773336	-0.174446	0.551749	-0.656179	-0.275069	0.378365	-0.777710	-0.281307	0.339140	-0.770760	-0.221623	0.332761	-0.783020	-0.222208	0.375997	-0.788720	-0.283872	0.162714	-0.765025	-0.238992	0.165458	-0.689382	-0.319432	0.174104	-0.700822	-0.216076	0.045262	-0.772937	-0.161944	0.053459	-0.706250	-0.139534	0.041168	-0.714077	
380	1.9000	-0.276868	1.594596	-0.589820	-0.187954	1.574144	-0.784532	-0.188029	1.558948	-0.393668	-0.138097	1.535086	-0.591172	-0.106998	1.086247	-0.472026	-0.104843	1.087335	-0.716394	-0.188695	1.141492	-0.437079	-0.175311	1.128452	-0.754360	-0.283623	1.134322	-0.542433	-0.283929	1.131046	-0.640011	-0.288063	1.130957	-0.590995	-0.224188	0.830236	-0.405896	-0.216152	0.770622	-0.407117	-0.152633	0.775268	-0.394500	-0.152277	0.836890	-0.391937	-0.211637	0.572949	-0.417723	-0.176684	0.545843	-0.530011	-0.287338	0.391696	-0.399148	-0.297919	0.350845	-0.406663	-0.234301	0.381268	-0.395659	-0.238356	0.341658	-0.397216	-0.313935	0.168683	-0.422024	-0.273971	0.167399	-0.499815	-0.350811	0.176793	-0.483110	-0.245215	0.056103	-0.401883	-0.186998	0.057546	-0.461937	-0.168957	0.045465	-0.462410	-0.216730	0.838389	-0.783864	-0.206473	0.777909	-0.784938	-0.142340	0.782423	-0.794722	-0.145297	0.842290	-0.796452	-0.199835	0.574002	-0.773036	-0.177932	0.557680	-0.655805	-0.275986	0.383360	-0.778319	-0.281547	0.343989	-0.771537	-0.221717	0.338713	-0.783676	-0.223069	0.381984	-0.789203	-0.281701	0.167731	-0.766365	-0.236800	0.170511	-0.690747	-0.317073	0.178876	-0.701989	-0.214200	0.049922	-0.774380	-0.159808	0.057256	-0.708399	-0.137706	0.044206	-0.716666	
381	1.9050	-0.278029	1.599739	-0.589736	-0.188941	1.580096	-0.784245	-0.189217	1.564775	-0.393685	-0.139193	1.541156	-0.591059	-0.106548	1.092636	-0.472592	-0.104024	1.093975	-0.716094	-0.187811	1.148252	-0.437564	-0.173983	1.135215	-0.754440	-0.282996	1.140944	-0.542958	-0.283032	1.137625	-0.640561	-0.287153	1.137730	-0.591501	-0.225377	0.836279	-0.406250	-0.217715	0.776617	-0.407344	-0.154247	0.780862	-0.394306	-0.153520	0.842484	-0.391832	-0.213251	0.578505	-0.417747	-0.177922	0.551153	-0.530018	-0.287606	0.396621	-0.398767	-0.297940	0.355704	-0.406242	-0.234525	0.386523	-0.395357	-0.238313	0.346905	-0.396761	-0.313436	0.173749	-0.421652	-0.272826	0.172112	-0.499086	-0.349678	0.181693	-0.483165	-0.245278	0.061287	-0.400233	-0.186466	0.061600	-0.458916	-0.168584	0.049144	-0.458714	-0.217946	0.844844	-0.783880	-0.208198	0.784264	-0.784817	-0.144028	0.788237	-0.794579	-0.146481	0.848116	-0.796436	-0.202749	0.579925	-0.772802	-0.181089	0.563356	-0.655421	-0.276581	0.388322	-0.779030	-0.281642	0.348849	-0.772358	-0.221662	0.344422	-0.784088	-0.223592	0.387706	-0.789540	-0.280072	0.172743	-0.767330	-0.235176	0.175574	-0.691745	-0.315398	0.183400	-0.702819	-0.212298	0.055172	-0.776094	-0.157508	0.061733	-0.710885	-0.135639	0.048113	-0.719693	
382	1.9100	-0.279136	1.604568	-0.589665	-0.189870	1.585751	-0.784006	-0.190330	1.570319	-0.393698	-0.140198	1.546932	-0.590956	-0.106195	1.098572	-0.473147	-0.103304	1.100128	-0.715826	-0.187037	1.154610	-0.437928	-0.172784	1.141615	-0.754507	-0.282464	1.147325	-0.543429	-0.282268	1.143942	-0.641051	-0.286357	1.144235	-0.591959	-0.226420	0.841932	-0.406591	-0.219043	0.782236	-0.407523	-0.155625	0.786174	-0.394105	-0.154630	0.847808	-0.391753	-0.214264	0.583661	-0.417761	-0.178684	0.556195	-0.529961	-0.287813	0.401382	-0.398491	-0.298052	0.360489	-0.405934	-0.234732	0.391476	-0.395209	-0.238368	0.351878	-0.396499	-0.313603	0.178822	-0.421657	-0.272152	0.176726	-0.498600	-0.349095	0.186395	-0.483697	-0.245837	0.066832	-0.398311	-0.186163	0.066208	-0.455444	-0.168378	0.053507	-0.454492	-0.219158	0.850974	-0.783801	-0.209896	0.790298	-0.784645	-0.145705	0.793769	-0.794446	-0.147677	0.853656	-0.796393	-0.205039	0.585619	-0.772640	-0.183872	0.568777	-0.655065	-0.276920	0.393234	-0.779802	-0.281661	0.353711	-0.773185	-0.221535	0.349860	-0.784272	-0.223841	0.393145	-0.789741	-0.279008	0.177700	-0.767948	-0.234069	0.180576	-0.692426	-0.314327	0.187712	-0.703294	-0.210571	0.060803	-0.777988	-0.155124	0.066843	-0.713745	-0.133405	0.052883	-0.723175	
383	1.9150	-0.280189	1.609091	-0.589606	-0.190746	1.591115	-0.783812	-0.191390	1.575601	-0.393681	-0.141111	1.552426	-0.590864	-0.105948	1.104042	-0.473672	-0.102682	1.105772	-0.715596	-0.186392	1.160519	-0.438183	-0.171719	1.147620	-0.754564	-0.282028	1.153434	-0.543843	-0.281638	1.149983	-0.641471	-0.285691	1.150444	-0.592361	-0.227294	0.847161	-0.406891	-0.220098	0.787441	-0.407643	-0.156732	0.791195	-0.393896	-0.155591	0.852839	-0.391683	-0.214729	0.588429	-0.417752	-0.178995	0.560977	-0.529818	-0.288034	0.406064	-0.398298	-0.298278	0.365222	-0.405743	-0.234946	0.396164	-0.395193	-0.238546	0.356604	-0.396412	-0.314343	0.183875	-0.421973	-0.271857	0.181228	-0.498300	-0.348929	0.190925	-0.484647	-0.246929	0.072560	-0.396190	-0.186113	0.071223	-0.451649	-0.168379	0.058396	-0.449949	-0.220328	0.856751	-0.783637	-0.211529	0.796003	-0.784448	-0.147336	0.798987	-0.794351	-0.148854	0.858881	-0.796331	-0.206735	0.591049	-0.772544	-0.186213	0.573943	-0.654783	-0.277096	0.398063	-0.780559	-0.281682	0.358532	-0.773960	-0.221407	0.355006	-0.784267	-0.223912	0.398285	-0.789824	-0.278492	0.182538	-0.768239	-0.233381	0.185450	-0.692866	-0.313726	0.191869	-0.703410	-0.209213	0.066590	-0.779984	-0.152749	0.072474	-0.716957	-0.131090	0.058413	-0.727013	
384	1.9200	-0.281191	1.613345	-0.589560	-0.191579	1.596190	-0.783661	-0.192330	1.580623	-0.393658	-0.141939	1.557638	-0.590778	-0.105802	1.109046	-0.474144	-0.102162	1.110899	-0.715416	-0.185880	1.165970	-0.438339	-0.170797	1.153202	-0.754605	-0.281686	1.159246	-0.544189	-0.281140	1.155724	-0.641813	-0.285155	1.156326	-0.592698	-0.227997	0.851942	-0.407105	-0.220850	0.792214	-0.407695	-0.157531	0.795918	-0.393680	-0.156381	0.857564	-0.391609	-0.214739	0.592848	-0.417716	-0.178925	0.565508	-0.529590	-0.288286	0.410641	-0.398250	-0.298595	0.369842	-0.405733	-0.235205	0.400618	-0.395268	-0.238859	0.361120	-0.396461	-0.315535	0.188842	-0.422536	-0.271842	0.185624	-0.498143	-0.349064	0.195307	-0.485917	-0.248514	0.078366	-0.393962	-0.186348	0.076455	-0.447705	-0.168641	0.063577	-0.445326	-0.221410	0.862153	-0.783417	-0.213052	0.801342	-0.784258	-0.148871	0.803874	-0.794313	-0.149954	0.863764	-0.796267	-0.207919	0.596165	-0.772520	-0.188102	0.578832	-0.654603	-0.277205	0.402773	-0.781225	-0.281767	0.363256	-0.774616	-0.221369	0.359844	-0.784143	-0.223916	0.403126	-0.789822	-0.278478	0.187221	-0.768249	-0.232989	0.190162	-0.693145	-0.313463	0.195890	-0.703179	-0.208358	0.072342	-0.782013	-0.150513	0.078447	-0.720442	-0.128844	0.064472	-0.731072	
